<svg xmlns="http://www.w3.org/2000/svg" xmlns:xlink="http://www.w3.org/1999/xlink" xmlns:svgjs="http://svgjs.com/svgjs" version="1.1" width="512" height="512" x="0" y="0" viewBox="0 0 512 512" style="enable-background:new 0 0 512 512" xml:space="preserve" class=""><g transform="matrix(0.8500000000000001,-2.0818995585505008e-16,2.0818995585505008e-16,0.8500000000000001,38.39993562698356,38.39998583932899)"><g xmlns="http://www.w3.org/2000/svg"><g><path d="m412.113 91.657c-19.856-19.955-46.262-31.004-74.405-31.121-8.364-.031-15.165 6.713-15.208 15.069-.031 8.364 6.713 15.165 15.077 15.197 20.109.091 38.987 8.006 53.161 22.294.012.008.026.026.038.034 14.177 14.308 21.934 33.266 21.837 53.398-.043 8.356 6.703 15.167 15.06 15.211 1.051.004 2.089-.102 3.078-.302 6.893-1.391 12.093-7.452 12.132-14.758.133-28.218-10.737-54.803-30.603-74.859-.052-.052-.106-.113-.167-.163z" fill="#000000" data-original="#000000" style=""/><path d="m455.28 49.21c-.141-.136-.284-.282-.424-.419-31.193-31.254-72.669-48.588-116.865-48.791-8.366-.041-15.167 6.703-15.211 15.06-.044 8.356 6.703 15.167 15.059 15.211 36.18.163 70.127 14.353 95.641 39.96.101.093.194.198.295.29 25.55 25.785 39.529 59.977 39.372 96.29-.031 8.364 6.713 15.165 15.067 15.199 1.051.004 2.081-.091 3.08-.292 6.893-1.391 12.091-7.462 12.119-14.775.196-44.391-16.897-86.21-48.133-117.733z" fill="#000000" data-original="#000000" style=""/></g><path d="m138.247 457.31-35.72 35.79c-5.262 5.173-11.685 4.36-15.47.56-47.985-48.061-27.468-27.509-75.4-75.53-4.09-4.1-4.1-10.74-.01-14.84l36.21-36.37z" fill="#000000" data-original="#000000" style=""/><path d="m329.097 480.89-27.51 27.55c-4.74 4.74-12.43 4.75-17.17.01l-59.46-59.36 44.71-44.71 59.42 59.33c4.75 4.74 4.75 12.43.01 17.18z" fill="#000000" data-original="#000000" style=""/><path d="m260.517 371.04c-86.183 86.334-80.663 81.15-83.39 82.73l-126.53-126.53c1.569-2.637-3.757 3.018 82.62-83.5z" fill="#000000" data-original="#000000" style=""/><path d="m438.567 319.03-149.81 37.83-141.45-141.45 37.56-149.69c2.96-13.96 20.22-19.07 30.33-9 148.413 148.208 83.542 83.433 232.31 231.97 10.1 10.09 5.02 27.35-8.94 30.34z" fill="#000000" data-original="#000000" style=""/></g></g></svg>
