<?xml version="1.0" encoding="iso-8859-1"?>
<!-- Generator: Adobe Illustrator 19.0.0, SVG Export Plug-In . SVG Version: 6.00 Build 0)  -->
<svg version="1.1" id="Capa_1" xmlns="http://www.w3.org/2000/svg" xmlns:xlink="http://www.w3.org/1999/xlink" x="0px" y="0px"
	 viewBox="0 0 511.998 511.998" style="enable-background:new 0 0 511.998 511.998;" xml:space="preserve">
<g>
	<g>
		<path d="M255.999,0c-49.705,0-90,41.294-90,91s40.294,90,90,90s90-40.294,90-90S305.704,0,255.999,0z"/>
	</g>
</g>
<g>
	<g>
		<path d="M323.059,309.5c-39.097,0-52.471,46.655-52.603,47.124c-0.04,0.143-0.192,0.207-0.236,0.348
			c0-0.002,0.004-0.002,0.004-0.004c-1.935,6.26-7.604,10.598-14.182,10.627c-0.015,0-0.029,0-0.059,0
			c-6.694,0-12.583-4.468-14.429-10.913c-0.542-1.934-13.887-47.183-52.617-47.183c-29.692,0-52.075,24.844-52.075,57.803
			c0,39.229,35.376,78.6,93.999,128.082c5.004,4.217,10.15,8.56,15.427,13.044c5.592,4.75,13.812,4.764,19.406,0.016
			c5.273-4.477,10.41-8.811,15.397-13.032c44.599-37.623,94.043-85.99,94.043-128.112C375.134,334.344,352.752,309.5,323.059,309.5z
			"/>
	</g>
</g>
<g>
	<g>
		<path d="M332.499,182.5c-20.7,17.701-47.1,28.5-76.5,28.5c-29.4,0-55.8-10.8-76.5-28.5c-84,8.399-148.5,78.999-148.5,164.5v21
			c0,48.6,18.9,94.199,53.101,128.399c0,0.3,0,0.3,0.3,0.3c9.3,9.3,22.2,14.7,35.4,15c21.934-0.549,39.677-17.19,42.599-38.593
			c-27.962-28.727-55.536-65.537-55.536-105.804c0-51.242,39.15-87.803,81.936-87.803c0.029,0,0.051,0.005,0.081,0.005
			c0.02,0,0.038-0.005,0.059-0.005c28.233,0,51.823,15.529,67.075,38.247c15.394-22.934,38.344-38.247,67.046-38.247
			c0.02,0,0.038,0.005,0.059,0.005c0.029,0,0.051-0.005,0.081-0.005c45.452,0,81.936,38.987,81.936,87.803
			c-1.414,3.799,6.086,40.79-55.576,105.401c2.754,21.594,20.568,38.443,42.64,38.996c13.2-0.3,26.1-5.7,35.4-15
			c0.3,0,0.3,0,0.3-0.3c34.199-34.2,53.099-79.799,53.099-128.399v-21C480.999,261.499,416.498,190.899,332.499,182.5z"/>
	</g>
</g>
<g>
</g>
<g>
</g>
<g>
</g>
<g>
</g>
<g>
</g>
<g>
</g>
<g>
</g>
<g>
</g>
<g>
</g>
<g>
</g>
<g>
</g>
<g>
</g>
<g>
</g>
<g>
</g>
<g>
</g>
</svg>
