<svg id="Layer_1" enable-background="new 0 0 512 512" height="512" viewBox="0 0 512 512" width="512" xmlns="http://www.w3.org/2000/svg"><g><path d="m93.2 221.7 2 5.3c17.2 39.6 24.8 79.2 24.8 123.7v50.6c0 17 14.2 30.8 31.4 30.8 8 0 15.7-2.9 21.7-8.1 17.8-15.3 28-37.6 28-61v-27.5c0-30.2 24.1-55.2 53.9-55.2h.1c14.3 0 27.9 5.7 38 15.9 10.3 10.4 16.1 24.5 16.1 39.1v27.7c0 23 10.4 45.2 28.7 61 5.8 5.2 13.4 8.1 21.2 8.1 17 0 30.2-13.5 30.2-30.8v-50.6c0-42.5 9.9-84.4 29.6-128.2.1-.2.6-1.3.7-1.5 15.1-32.9 23.9-69.1 26.3-106.4 1.7-26.1-8.6-51.5-28.1-68.9-21.4-19.3-51.2-26.4-79-18.7l-35.9 9.8c-30.5 8.3-62.6 8.3-93.1 0l-35.8-9.8c-45.3-12.3-92 14.4-104.3 59.7-2.5 9.1-3.4 18.5-2.8 27.9 1.9 36.9 10.9 73.3 26.3 107.1zm5.8-156.8c0-.1 0-.1 0 0 2.1-2.5 4.3-4.8 6.7-6.9 2.1-1.8 5.2-1.7 7.1.4 1.8 2.1 1.7 5.2-.4 7-2 1.8-3.9 3.8-5.7 5.8-1.8 2.1-4.9 2.4-7 .7s-2.5-4.9-.7-7zm-12.1 21.1c.9-2.6 3.8-4 6.4-3 2.6.9 4 3.8 3 6.4-2.7 7.5-3.7 15.5-3.2 23.5 2.1 33.8 10.3 66.9 24.3 97.8 1.2 2.5.1 5.5-2.4 6.6s-5.5.1-6.6-2.4c-14.5-32-23-66.3-25.2-101.3-.7-9.5.6-18.8 3.7-27.6z"/><path d="m406.8 286.7c-5.1 20.9-7.7 42.4-7.8 63.9v50.6c0 22.5-17.9 40.8-40.1 40.8-10.2 0-20-3.8-27.6-10.5-20.6-17.6-32.3-42.6-32.3-68.5v-27.8c.1-12-4.7-23.5-13.1-32-8.2-8.3-19.3-12.9-30.9-12.9h-.1c-24.2 0-43.9 20.5-43.9 45.2v27.5c0 26.4-11.5 51.4-31.5 68.6-7.8 6.8-17.8 10.5-28.1 10.5-22.7 0-41.4-18.3-41.4-40.8v-50.6c.1-21.4-1.9-42.8-6.2-63.8-27.3 2.1-54.8 5-81.8 8.4v192.9h468v-192.9c-27.5-3.5-55.6-6.3-83.2-8.6z"/></g></svg>